Cowboys.and.Indians.2011.DVDRip.XviD-miRaGe







imdb: http://www.imdb.com/title/tt1886504/
trailer: http://www.imdb.com/video/screenplay/vi2686362393/
rating: pg-13
runtime: 86 min
genre: Adventure | Family | Western
release date: 2011
plot: With the fate of the frontier hanging in the balance, a former cavalry officer is called back into action to rescue a beautiful maiden from the clutches a band of renegade Black Claw Indians led by a frightening medicine man.


Info
____
Format : AVI

Format/Info : Audio Video Interleave

File size : 700 MiB

Duration : 1h 25mn

Overall bit rate mode : Variable

Overall bit rate : 1 147 Kbps


Video
_____
ID : 0

Format : MPEG-4 Visual

Codec ID : XVID

Codec ID/Hint : XviD

Duration : 1h 25mn

Bit rate : 1 020 Kbps

Width : 544 pixels

Height : 304 pixels

Display aspect ratio : 16:9

Frame rate : 23.976 fps

Color space : YUV

Chroma subsampling : 4:2:0

Bit depth : 8 bits

Scan type : Progressive

Compression mode : Lossy

Bits/(Pixel*Frame) : 0.257

Stream size : 623 MiB (89%)

Writing library : XviD 64



Audio
_____
ID : 1

Format : MPEG Audio

Format version : Version 1

Format profile : Layer 3

Mode : Joint stereo

Mode extension : MS Stereo

Codec ID : 55

Codec ID/Hint : MP3

Duration : 1h 25mn

Bit rate mode : Variable

Bit rate : 115 Kbps

Nominal bit rate : 128 Kbps

Channel(s) : 2 channels

Sampling rate : 48.0 KHz

Compression mode : Lossy

Stream size : 69.9 MiB (10%)

Alignment : Aligned on interleaves

Interleave, duration : 24 ms (0.58 video frame)

Interleave, preload duration : 160 ms


